<?xml version="1.0" encoding="utf-8"?>
<!-- Generator: Adobe Illustrator 23.1.1, SVG Export Plug-In . SVG Version: 6.00 Build 0)  -->
<svg version="1.1" id="Livello_1" xmlns="http://www.w3.org/2000/svg" xmlns:xlink="http://www.w3.org/1999/xlink" x="0px" y="0px"
	 viewBox="0 0 300 300" style="enable-background:new 0 0 300 300;" xml:space="preserve">
<style type="text/css">
	.st0{fill:url(#SVGID_1_);}
	.st1{fill:#FFFFFF;}
	.st2{fill:url(#SVGID_2_);}
	.st3{fill:url(#SVGID_3_);}
</style>
<g>
	<linearGradient id="SVGID_1_" gradientUnits="userSpaceOnUse" x1="150" y1="42.9581" x2="150" y2="266.0768">
		<stop  offset="0" style="stop-color:#405764"/>
		<stop  offset="1" style="stop-color:#30424E"/>
	</linearGradient>
	<path class="st0" d="M250.73,163.9C224.14,133.76,137.04,50.21,137.04,50.21c-0.07-0.08-0.13-0.17-0.2-0.24
		c-4.52-4.52-10.53-7.01-16.92-7.01c-6.39,0-12.4,2.49-16.92,7.01l-70.14,70.14v11.7l75.99-75.99c2.96-2.96,6.89-4.59,11.07-4.59
		s8.12,1.63,11.08,4.59c2.96,2.96,4.59,6.89,4.59,11.07s-1.63,8.12-4.59,11.08L32.86,176.1v51.75l70.14-70.14
		c4.52-4.52,10.53-7.01,16.92-7.01c6.18,0,11.97,2.37,16.43,6.61l0.03-0.03l0.26,0.26c0.06,0.06,0.14,0.1,0.2,0.17
		c0.06,0.06,0.1,0.14,0.17,0.2l108.14,108.14c0.02,0.01,0.02,0.01,0.02,0.01c13.6-14.07,21.98-33.21,21.98-54.33
		C267.14,193.71,261.81,176.46,250.73,163.9z"/>
	<path class="st1" d="M119.92,51.23c-4.18,0-8.12,1.63-11.07,4.59L32.86,131.8v44.3l98.14-98.13c2.96-2.96,4.59-6.89,4.59-11.08
		s-1.63-8.12-4.59-11.07C128.04,52.86,124.1,51.23,119.92,51.23z"/>
	<path class="st1" d="M119.92,158.98c-4.18,0-8.12,1.63-11.07,4.59l-75.99,75.99v44.3l98.14-98.14c2.96-2.96,4.59-6.89,4.59-11.08
		c0-4.18-1.63-8.12-4.59-11.07C128.04,160.61,124.1,158.98,119.92,158.98z"/>
	<g>
		<linearGradient id="SVGID_2_" gradientUnits="userSpaceOnUse" x1="139.0036" y1="150.7063" x2="139.0036" y2="290">
			<stop  offset="0" style="stop-color:#0097A7"/>
			<stop  offset="1" style="stop-color:#00626E"/>
		</linearGradient>
		<path class="st2" d="M245.15,266.06L137.01,157.92c-0.06-0.06-0.1-0.14-0.17-0.2c-0.06-0.06-0.14-0.1-0.2-0.17l-0.26-0.26
			l-0.03,0.03c-5.65-5.36-13.41-7.73-21.4-6.1c-4.73,0.97-8.99,3.54-12.4,6.95l-69.69,69.69v11.7L108.41,164
			c2.57-2.57,5.86-4.44,9.47-4.89c4.93-0.62,9.68,1.03,13.11,4.46c3.43,3.43,5.08,8.18,4.46,13.11c-0.45,3.61-2.32,6.9-4.9,9.48
			l-97.7,97.7l0,0c0,3.4,2.75,6.15,6.15,6.15h149.89C211,290,230.92,280.8,245.15,266.06L245.15,266.06z"/>
		<linearGradient id="SVGID_3_" gradientUnits="userSpaceOnUse" x1="143.5104" y1="10" x2="143.5104" y2="132.2312">
			<stop  offset="0" style="stop-color:#0097A7"/>
			<stop  offset="1" style="stop-color:#00626E"/>
		</linearGradient>
		<path class="st3" d="M117.72,43.06c7.2-0.64,14.08,1.88,19.12,6.91c0.08,0.08,0.13,0.17,0.2,0.24c0,0,47.93,45.97,83.53,82.02
			c20.6-11.46,34.38-33.69,33.56-59.13C252.98,37.63,222.7,10,187.2,10L39.06,10c-3.43,0-6.2,2.78-6.2,6.2v103.9l69.5-69.5
			C106.51,46.46,111.89,43.57,117.72,43.06z"/>
	</g>
</g>
</svg>
